<svg version="1.1" id="Layer_1" xmlns="http://www.w3.org/2000/svg" xmlns:xlink="http://www.w3.org/1999/xlink" x="0px" y="0px"
	 width="100%" viewBox="0 0 699 699" enable-background="new 0 0 699 699" xml:space="preserve">
<path fill="transparent" opacity="1.000000" stroke="none" 
	d="
M1.000000,265.000000 
	C1.000000,176.666672 1.000000,88.833336 1.000000,1.000000 
	C234.000000,1.000000 467.000000,1.000000 700.000000,1.000000 
	C700.000000,234.000000 700.000000,467.000000 700.000000,700.000000 
	C467.000000,700.000000 234.000000,700.000000 1.000000,700.000000 
	C1.000000,555.166687 1.000000,410.333344 1.000000,265.000000 
M96.500000,21.000603 
	C81.505104,21.000963 66.509895,20.939955 51.515408,21.017889 
	C34.427330,21.106699 21.038202,34.325874 21.027647,51.316326 
	C20.975994,134.456375 20.975895,217.596481 21.028597,300.736542 
	C21.039228,317.506470 34.380135,330.958160 51.066662,330.970367 
	C134.373322,331.031158 217.680069,331.014099 300.986694,330.935455 
	C304.084503,330.932526 307.312408,330.407654 310.256073,329.443420 
	C322.799683,325.334442 331.196045,312.443054 331.148163,299.185211 
	C330.852142,217.212494 330.711823,135.236343 331.232788,53.265858 
	C331.342010,36.083557 316.663605,20.593840 298.433563,20.759396 
	C231.460495,21.367617 164.478592,21.000607 96.500000,21.000603 
M370.000549,295.469543 
	C370.002625,297.302307 369.987610,299.135254 370.009430,300.967773 
	C370.205322,317.418823 383.439636,330.951294 399.798462,330.965149 
	C483.272339,331.035828 566.746338,331.036255 650.220215,330.964691 
	C666.571716,330.950653 679.959167,317.399414 679.970215,300.951263 
	C680.026245,217.643997 680.026672,134.336639 679.969910,51.029362 
	C679.958679,34.582264 666.573730,21.052902 650.198792,21.038708 
	C566.724915,20.966351 483.250885,20.988260 399.777039,21.072851 
	C396.689178,21.075979 393.425781,21.601805 390.545135,22.684671 
	C377.191895,27.704275 370.010803,38.279572 370.008087,52.554848 
	C369.992615,133.196335 370.000549,213.837814 370.000549,295.469543 
M330.999451,520.500000 
	C330.999451,481.179108 330.462097,441.847565 331.240387,402.542084 
	C331.595917,384.586029 316.176697,369.658386 298.707306,369.769470 
	C216.903503,370.289734 135.092728,370.289062 53.288857,369.773468 
	C35.495510,369.661316 20.677732,384.929962 20.780247,402.044342 
	C21.271248,484.015137 21.270647,565.992065 20.779812,647.962891 
	C20.677851,664.990540 35.409756,680.340393 53.293980,680.227173 
	C135.097809,679.708984 216.908630,679.709290 298.712402,680.231689 
	C316.151215,680.343079 331.566589,665.439026 331.241577,647.455261 
	C330.482971,605.482422 330.999451,563.486572 330.999451,520.500000 
z"/>
<path fill="#000000" opacity="1.000000" stroke="none" 
	d="
M97.000000,21.000603 
	C164.478592,21.000607 231.460495,21.367617 298.433563,20.759396 
	C316.663605,20.593840 331.342010,36.083557 331.232788,53.265858 
	C330.711823,135.236343 330.852142,217.212494 331.148163,299.185211 
	C331.196045,312.443054 322.799683,325.334442 310.256073,329.443420 
	C307.312408,330.407654 304.084503,330.932526 300.986694,330.935455 
	C217.680069,331.014099 134.373322,331.031158 51.066662,330.970367 
	C34.380135,330.958160 21.039228,317.506470 21.028597,300.736542 
	C20.975895,217.596481 20.975994,134.456375 21.027647,51.316326 
	C21.038202,34.325874 34.427330,21.106699 51.515408,21.017889 
	C66.509895,20.939955 81.505104,21.000963 97.000000,21.000603 
z"/>
<path fill="#000000" opacity="1.000000" stroke="none" 
	d="
M370.000549,294.974426 
	C370.000549,213.837814 369.992615,133.196335 370.008087,52.554848 
	C370.010803,38.279572 377.191895,27.704275 390.545135,22.684671 
	C393.425781,21.601805 396.689178,21.075979 399.777039,21.072851 
	C483.250885,20.988260 566.724915,20.966351 650.198792,21.038708 
	C666.573730,21.052902 679.958679,34.582264 679.969910,51.029362 
	C680.026672,134.336639 680.026245,217.643997 679.970215,300.951263 
	C679.959167,317.399414 666.571716,330.950653 650.220215,330.964691 
	C566.746338,331.036255 483.272339,331.035828 399.798462,330.965149 
	C383.439636,330.951294 370.205322,317.418823 370.009430,300.967773 
	C369.987610,299.135254 370.002625,297.302307 370.000549,294.974426 
z"/>
<path fill="#000000" opacity="1.000000" stroke="none" 
	d="
M330.999451,521.000000 
	C330.999451,563.486572 330.482971,605.482422 331.241577,647.455261 
	C331.566589,665.439026 316.151215,680.343079 298.712402,680.231689 
	C216.908630,679.709290 135.097809,679.708984 53.293980,680.227173 
	C35.409756,680.340393 20.677851,664.990540 20.779812,647.962891 
	C21.270647,565.992065 21.271248,484.015137 20.780247,402.044342 
	C20.677732,384.929962 35.495510,369.661316 53.288857,369.773468 
	C135.092728,370.289062 216.903503,370.289734 298.707306,369.769470 
	C316.176697,369.658386 331.595917,384.586029 331.240387,402.542084 
	C330.462097,441.847565 330.999451,481.179108 330.999451,521.000000 
z"/>
</svg>